<?xml version="1.0" encoding="UTF-8"?>
<svg version="1.1" xmlns="http://www.w3.org/2000/svg" width="512" height="512">
<path d="M0 0 C1.17103271 0.1841748 1.17103271 0.1841748 2.36572266 0.37207031 C11.49365178 1.83205633 20.23515676 4.05845643 29 7 C30.09248047 7.35191406 30.09248047 7.35191406 31.20703125 7.7109375 C33.48003611 8.44977273 35.73869403 9.22604111 38 10 C38.90492188 10.29729004 38.90492188 10.29729004 39.828125 10.60058594 C48.63277869 13.4948638 56.81115654 16.66464241 64.90625 21.25390625 C69.83584013 24.03613705 74.92200478 26.50217533 80 29 C80 29.66 80 30.32 80 31 C80.886875 31.268125 81.77375 31.53625 82.6875 31.8125 C85.7909666 32.9250635 88.31110685 34.10195778 91 36 C91 36.66 91 37.32 91 38 C91.66 38.20625 92.32 38.4125 93 38.625 C97.12455868 40.51542273 100.43968665 43.218284 104 46 C104.74121094 46.51691406 105.48242188 47.03382812 106.24609375 47.56640625 C106.82488281 48.03949219 107.40367187 48.51257813 108 49 C108 49.66 108 50.32 108 51 C108.680625 51.185625 109.36125 51.37125 110.0625 51.5625 C113.50010109 53.24473032 115.48724385 55.32268909 118.10546875 58.06640625 C120.03178638 60.03244177 122.03926544 61.82993278 124.125 63.625 C130.58028939 69.21629272 136.61130873 75.3668615 142 82 C142 82.66 142 83.32 142 84 C142.99 84.33 143.98 84.66 145 85 C149 90.37142857 149 90.37142857 149 93 C149.99 93.33 150.98 93.66 152 94 C153.03291676 95.98320018 154.0337499 97.98347806 155 100 C155.66 100.33 156.32 100.66 157 101 C161 107.35294118 161 107.35294118 161 111 C161.66 111 162.32 111 163 111 C173.13525836 129.86284195 173.13525836 129.86284195 176 137 C176.4434375 138.09570312 176.886875 139.19140625 177.34375 140.3203125 C181 149.5625 181 149.5625 181 153 C181.66 153 182.32 153 183 153 C186.21816492 163.52997751 189.20389746 174.04821186 191.25 184.875 C191.47574707 186.06452271 191.47574707 186.06452271 191.70605469 187.27807617 C192.17100151 189.84756038 192.59153037 192.42092862 193 195 C193.17732666 196.07362793 193.35465332 197.14725586 193.53735352 198.25341797 C195.15601876 208.9695478 195.43798058 219.55314039 195.4375 230.375 C195.44009827 231.77265594 195.44009827 231.77265594 195.44274902 233.19854736 C195.42548416 254.50657155 193.58361529 275.68366984 186.94921875 296.05395508 C185.46624208 300.65659897 184.23637046 305.32614499 183 310 C182.34 310 181.68 310 181 310 C180.83564453 310.85271484 180.83564453 310.85271484 180.66796875 311.72265625 C180.50941406 312.49480469 180.35085938 313.26695312 180.1875 314.0625 C180.03667969 314.81660156 179.88585937 315.57070313 179.73046875 316.34765625 C178.02665433 322.53423373 174.94988031 328.23423641 172.0625 333.9375 C171.72798828 334.60201172 171.39347656 335.26652344 171.04882812 335.95117188 C170.37384619 337.29203193 169.69733527 338.63212341 169.01928711 339.97143555 C168.32707838 341.34905526 167.64326661 342.73091982 166.96704102 344.11645508 C165.12932234 347.86961674 163.21753635 351.38114993 160.8125 354.8125 C159.0689433 357.30644819 157.97123615 359.08629155 157 362 C156.071875 362.8971875 156.071875 362.8971875 155.125 363.8125 C152.83779754 365.94634621 152.83779754 365.94634621 151.5 369 C149.98926066 372.02147867 148.44177995 373.71575424 146 376 C145.34 376.99 144.68 377.98 144 379 C143.34 379 142.68 379 142 379 C141.60941406 379.86818359 141.60941406 379.86818359 141.2109375 380.75390625 C139.91807675 383.15195442 138.45274925 384.92218697 136.625 386.9375 C134.63928505 389.1529671 132.72145456 391.35227805 130.875 393.6875 C127.3114895 398.08249628 123.14182669 401.84678534 119 405.6875 C118.175 406.45449219 117.35 407.22148437 116.5 408.01171875 C114.03902306 409.96896447 111.91219369 410.89781558 109 412 C108.3162955 413.32467746 107.65035814 414.65863633 107 416 C105.36368108 417.04892238 103.69514137 418.04906703 102 419 C101.505 419.495 101.01 419.99 100.5 420.5 C98.54407459 422.45592541 96.42787389 423.69268329 94 425 C93.34 425 92.68 425 92 425 C92 425.66 92 426.32 92 427 C90.54462432 427.83848804 89.08559627 428.67063934 87.625 429.5 C86.81289063 429.9640625 86.00078125 430.428125 85.1640625 430.90625 C83 432 83 432 81 432 C81 432.66 81 433.32 81 434 C78.64776003 435.2745084 76.29333069 436.54465898 73.9375 437.8125 C73.28072266 438.16892578 72.62394531 438.52535156 71.94726562 438.89257812 C60.57289278 445 60.57289278 445 56 445 C56 445.66 56 446.32 56 447 C53.73117913 447.83919398 51.46022973 448.67151724 49.1875 449.5 C48.22360352 449.85771484 48.22360352 449.85771484 47.24023438 450.22265625 C44.35066261 451.27068746 42.09923939 452 39 452 C39 452.66 39 453.32 39 454 C38.17592651 454.21148682 38.17592651 454.21148682 37.33520508 454.42724609 C34.82674079 455.07307317 32.31962371 455.72398903 29.8125 456.375 C28.94818359 456.59671875 28.08386719 456.8184375 27.19335938 457.046875 C26.35224609 457.26601563 25.51113281 457.48515625 24.64453125 457.7109375 C23.87471924 457.90993652 23.10490723 458.10893555 22.31176758 458.31396484 C19.95517621 458.96900673 19.95517621 458.96900673 17.59692383 460 C-17.65061618 473.57280473 -71.93888134 469.7476601 -106.87890625 457.11328125 C-110.54879801 455.80424602 -114.21021444 454.90115422 -118 454 C-118 453.34 -118 452.68 -118 452 C-118.54527344 451.90203125 -119.09054688 451.8040625 -119.65234375 451.703125 C-130.57575086 449.53711607 -140.12379668 443.99431528 -149.98486328 439.015625 C-153.31898818 437.33523251 -156.65978395 435.66824614 -160 434 C-160 433.34 -160 432.68 -160 432 C-160.886875 431.731875 -161.77375 431.46375 -162.6875 431.1875 C-165.7909666 430.0749365 -168.31110685 428.89804222 -171 427 C-171 426.34 -171 425.68 -171 425 C-171.7425 424.71125 -172.485 424.4225 -173.25 424.125 C-177.79459409 422.26584787 -180.55920078 420.5483242 -184 417 C-184.7425 416.46375 -185.485 415.9275 -186.25 415.375 C-187.11625 414.694375 -187.11625 414.694375 -188 414 C-188 413.34 -188 412.68 -188 412 C-188.680625 411.814375 -189.36125 411.62875 -190.0625 411.4375 C-194.20577859 409.40993814 -196.86938541 406.33258972 -200 403 C-202.38630153 400.55688177 -204.66035355 398.25920387 -207.375 396.1875 C-211.01850825 393.15124313 -213.95803054 389.6258546 -217 386 C-217.804375 385.05125 -218.60875 384.1025 -219.4375 383.125 C-221 381 -221 381 -221 379 C-221.99 378.67 -222.98 378.34 -224 378 C-228 372.62857143 -228 372.62857143 -228 370 C-228.99 369.67 -229.98 369.34 -231 369 C-232.03291676 367.01679982 -233.0337499 365.01652194 -234 363 C-234.66 362.67 -235.32 362.34 -236 362 C-240 355.64705882 -240 355.64705882 -240 352 C-240.66 352 -241.32 352 -242 352 C-252.13525836 333.13715805 -252.13525836 333.13715805 -255 326 C-255.4434375 324.90429688 -255.886875 323.80859375 -256.34375 322.6796875 C-260 313.4375 -260 313.4375 -260 310 C-260.66 310 -261.32 310 -262 310 C-262.21148682 309.17592651 -262.21148682 309.17592651 -262.42724609 308.33520508 C-263.07307317 305.82674079 -263.72398903 303.31962371 -264.375 300.8125 C-264.59671875 299.94818359 -264.8184375 299.08386719 -265.046875 298.19335938 C-265.26601563 297.35224609 -265.48515625 296.51113281 -265.7109375 295.64453125 C-265.90993652 294.87471924 -266.10893555 294.10490723 -266.31396484 293.31176758 C-266.96900673 290.95517621 -266.96900673 290.95517621 -268 288.59692383 C-281.42124425 253.74297483 -277.25574454 201.66165981 -265.94921875 166.94604492 C-264.46624208 162.34340103 -263.23637046 157.67385501 -262 153 C-261.34 153 -260.68 153 -260 153 C-259.90203125 152.45472656 -259.8040625 151.90945312 -259.703125 151.34765625 C-257.52514096 140.3638574 -251.93801832 130.74630212 -246.9230957 120.83398438 C-246.07608335 119.15116057 -245.24430554 117.46069132 -244.4140625 115.76953125 C-243.19115826 113.37439559 -241.89477626 111.13172248 -240.4375 108.875 C-238.78560719 106.31225041 -237.32482868 103.74734058 -236 101 C-235.34 101 -234.68 101 -234 101 C-233.731875 100.443125 -233.46375 99.88625 -233.1875 99.3125 C-230.39282492 93.87023799 -227.07979096 88.57982105 -223 84 C-222.34 84 -221.68 84 -221 84 C-220.73832031 83.42121094 -220.47664063 82.84242187 -220.20703125 82.24609375 C-218.92707261 79.86429369 -217.48643946 78.07683354 -215.6875 76.0625 C-215.06617188 75.36640625 -214.44484375 74.6703125 -213.8046875 73.953125 C-211.601542 71.5687684 -209.29531508 69.29531508 -207 67 C-206.0409375 65.7315625 -206.0409375 65.7315625 -205.0625 64.4375 C-202.67392391 61.61463735 -200.08769789 60.01645577 -197 58 C-196.154375 57.13375 -195.30875 56.2675 -194.4375 55.375 C-192 53 -192 53 -189.3125 51.9375 C-186.86219991 51.24071261 -186.86219991 51.24071261 -186.0625 49.125 C-184.47591488 45.95182977 -181.98358334 44.85770283 -179 43 C-177.74537223 42.08967756 -176.49535533 41.17296689 -175.25 40.25 C-172 38 -172 38 -170 38 C-170 37.34 -170 36.68 -170 36 C-168.54462432 35.16151196 -167.08559627 34.32936066 -165.625 33.5 C-164.81289062 33.0359375 -164.00078125 32.571875 -163.1640625 32.09375 C-161 31 -161 31 -159 31 C-159 30.34 -159 29.68 -159 29 C-156.22758936 27.61379468 -153.45470723 26.22863666 -150.6796875 24.84765625 C-148.15244639 23.58540251 -145.63964793 22.29837033 -143.1328125 20.99609375 C-134.58333121 16.58606323 -126.13533094 13.06068633 -117 10 C-115.53865734 9.445365 -114.07974739 8.88421006 -112.625 8.3125 C-107.40276846 6.42169203 -102.60575399 5 -97 5 C-97 4.34 -97 3.68 -97 3 C-64.49788969 -3.07755846 -32.84932956 -5.34916014 0 0 Z " fill="#F4FAFC" transform="translate(296,25)"/>
<path d="M0 0 C5.5601643 4.91363357 9.58559475 9.24452991 10.23828125 16.734375 C10.26277344 17.72953125 10.28726563 18.7246875 10.3125 19.75 C10.36857422 21.22726563 10.36857422 21.22726563 10.42578125 22.734375 C9.3334784 31.11203724 4.13276788 36.40687316 -1.625 42.1875 C-10.25313696 51.09932853 -17.96747813 60.1034177 -24 71 C-24.66 71 -25.32 71 -26 71 C-26.12221924 71.57782227 -26.24443848 72.15564453 -26.37036133 72.75097656 C-27.02047303 75.07312816 -27.90134015 76.88169883 -29.07421875 78.984375 C-29.70058228 80.12845825 -29.70058228 80.12845825 -30.33959961 81.2956543 C-30.78440674 82.10558838 -31.22921387 82.91552246 -31.6875 83.75 C-36.29125899 92.29678951 -39.81989754 100.83615334 -43 110 C-43.48642347 111.26373748 -43.97477954 112.5267324 -44.46484375 113.7890625 C-46.30435676 118.67495542 -47.72863227 123.65987448 -49.125 128.6875 C-49.38925781 129.59177734 -49.65351562 130.49605469 -49.92578125 131.42773438 C-53.30736739 143.60659409 -53.16486816 156.00879593 -53.13037109 168.54980469 C-53.12495925 170.89264245 -53.13037886 173.23529262 -53.13671875 175.578125 C-53.13605866 177.09114625 -53.13477894 178.60416738 -53.1328125 180.1171875 C-53.13483673 180.80585907 -53.13686096 181.49453064 -53.13894653 182.20407104 C-53.52844988 189.59609746 -53.52844988 189.59609746 -51 196 C-50.72662759 197.5791077 -50.50642059 199.1674735 -50.30859375 200.7578125 C-47.86435032 218.86519647 -43.46846305 235.73622946 -35 252 C-34.35867256 253.31606418 -33.718056 254.63247499 -33.078125 255.94921875 C-25.49460164 271.09778709 -15.77727505 285.19276422 -4.24609375 297.56640625 C-2.53600841 299.41924654 -0.93275487 301.27264785 0.625 303.25 C3.77293649 306.89497909 7.3316796 309.8933023 11 313 C11.52078125 313.47050781 12.0415625 313.94101562 12.578125 314.42578125 C25.53088361 326.03747141 40.94876503 335.37014208 57 342 C58.43897863 342.64253205 59.87669662 343.28790352 61.3125 343.9375 C72.90389256 349.07615457 84.07824666 352.72611841 96.6640625 354.5703125 C99 355 99 355 100 356 C110.26758753 357.96773279 120.52626705 358.34480203 130.95092773 358.31567383 C133.30044171 358.31251621 135.6486872 358.33608201 137.99804688 358.36132812 C164.52984228 358.47006145 193.35627511 351.774574 216.3671875 338.4296875 C219 337 219 337 222.31640625 335.6328125 C226.52414943 333.86706313 230.25321408 331.49491941 234.0625 329 C234.79839355 328.52014648 235.53428711 328.04029297 236.29248047 327.54589844 C246.27439474 320.94290839 255.80476307 313.76114843 264 305 C266.53170142 302.45985958 269.0719053 299.92884483 271.62109375 297.40625 C285.04534944 283.73154178 295.0384118 267.34419337 303 250 C303.45503906 249.08863281 303.91007812 248.17726563 304.37890625 247.23828125 C316.04078091 223.36616793 320.22264185 195.81321498 320.25 169.5 C320.25133942 168.74055084 320.25267883 167.98110168 320.25405884 167.19863892 C320.2498302 156.15794486 319.69717904 145.75176849 317 135 C316.74863281 133.84371094 316.49726563 132.68742188 316.23828125 131.49609375 C315.54183697 128.31603337 314.78952499 125.15809994 314 122 C313.7525 121.01 313.505 120.02 313.25 119 C311.88738329 113.77663596 310.18010823 108.93838067 308 104 C307.41212594 102.62396881 306.82491303 101.24765501 306.23828125 99.87109375 C299.45006255 84.15592668 291.26926692 69.81600199 280.875 56.1875 C280.45492676 55.63570068 280.03485352 55.08390137 279.60205078 54.51538086 C277.7413485 52.10838699 275.86858146 49.87103164 273.6953125 47.73828125 C272 46 272 46 272 44 C271.01 43.67 270.02 43.34 269 43 C263.8312855 37.66976317 261.85627582 31.814005 261.5625 24.5 C261.78465941 18.06626337 263.43897804 13.70538019 267.87109375 9.0234375 C274.25039887 3.16267703 279.27890425 1.52405727 287.92578125 1.68359375 C295.21171883 2.43348059 300.19514756 5.56293013 305 11 C306.20332188 12.19257794 307.41197115 13.37979687 308.625 14.5625 C315 20.95138889 315 20.95138889 315 24 C315.99 24.33 316.98 24.66 318 25 C322 30.37142857 322 30.37142857 322 33 C322.99 33.33 323.98 33.66 325 34 C326.03291676 35.98320018 327.0337499 37.98347806 328 40 C328.66 40.33 329.32 40.66 330 41 C334 47.35294118 334 47.35294118 334 51 C334.66 51 335.32 51 336 51 C346.13525836 69.86284195 346.13525836 69.86284195 349 77 C349.4434375 78.09570312 349.886875 79.19140625 350.34375 80.3203125 C354 89.5625 354 89.5625 354 93 C354.66 93 355.32 93 356 93 C359.21816492 103.52997751 362.20389746 114.04821186 364.25 124.875 C364.47574707 126.06452271 364.47574707 126.06452271 364.70605469 127.27807617 C365.17100151 129.84756038 365.59153037 132.42092862 366 135 C366.17732666 136.07362793 366.35465332 137.14725586 366.53735352 138.25341797 C368.15601876 148.9695478 368.43798058 159.55314039 368.4375 170.375 C368.44009827 171.77265594 368.44009827 171.77265594 368.44274902 173.19854736 C368.42548416 194.50657155 366.58361529 215.68366984 359.94921875 236.05395508 C358.46624208 240.65659897 357.23637046 245.32614499 356 250 C355.34 250 354.68 250 354 250 C353.83564453 250.85271484 353.83564453 250.85271484 353.66796875 251.72265625 C353.50941406 252.49480469 353.35085938 253.26695312 353.1875 254.0625 C353.03667969 254.81660156 352.88585937 255.57070313 352.73046875 256.34765625 C351.02665433 262.53423373 347.94988031 268.23423641 345.0625 273.9375 C344.72798828 274.60201172 344.39347656 275.26652344 344.04882812 275.95117188 C343.37384619 277.29203193 342.69733527 278.63212341 342.01928711 279.97143555 C341.32707838 281.34905526 340.64326661 282.73091982 339.96704102 284.11645508 C338.12932234 287.86961674 336.21753635 291.38114993 333.8125 294.8125 C332.0689433 297.30644819 330.97123615 299.08629155 330 302 C329.071875 302.8971875 329.071875 302.8971875 328.125 303.8125 C325.83779754 305.94634621 325.83779754 305.94634621 324.5 309 C322.98926066 312.02147867 321.44177995 313.71575424 319 316 C318.34 316.99 317.68 317.98 317 319 C316.34 319 315.68 319 315 319 C314.60941406 319.86818359 314.60941406 319.86818359 314.2109375 320.75390625 C312.91807675 323.15195442 311.45274925 324.92218697 309.625 326.9375 C307.63928505 329.1529671 305.72145456 331.35227805 303.875 333.6875 C300.3114895 338.08249628 296.14182669 341.84678534 292 345.6875 C291.175 346.45449219 290.35 347.22148437 289.5 348.01171875 C287.03902306 349.96896447 284.91219369 350.89781558 282 352 C281.3162955 353.32467746 280.65035814 354.65863633 280 356 C278.36368108 357.04892238 276.69514137 358.04906703 275 359 C274.505 359.495 274.01 359.99 273.5 360.5 C271.54407459 362.45592541 269.42787389 363.69268329 267 365 C266.34 365 265.68 365 265 365 C265 365.66 265 366.32 265 367 C263.54462432 367.83848804 262.08559627 368.67063934 260.625 369.5 C259.81289063 369.9640625 259.00078125 370.428125 258.1640625 370.90625 C256 372 256 372 254 372 C254 372.66 254 373.32 254 374 C251.64776003 375.2745084 249.29333069 376.54465898 246.9375 377.8125 C246.28072266 378.16892578 245.62394531 378.52535156 244.94726562 378.89257812 C233.57289278 385 233.57289278 385 229 385 C229 385.66 229 386.32 229 387 C226.73117913 387.83919398 224.46022973 388.67151724 222.1875 389.5 C221.22360352 389.85771484 221.22360352 389.85771484 220.24023438 390.22265625 C217.35066261 391.27068746 215.09923939 392 212 392 C212 392.66 212 393.32 212 394 C211.17592651 394.21148682 211.17592651 394.21148682 210.33520508 394.42724609 C207.82674079 395.07307317 205.31962371 395.72398903 202.8125 396.375 C201.94818359 396.59671875 201.08386719 396.8184375 200.19335938 397.046875 C199.35224609 397.26601563 198.51113281 397.48515625 197.64453125 397.7109375 C196.87471924 397.90993652 196.10490723 398.10893555 195.31176758 398.31396484 C192.95517621 398.96900673 192.95517621 398.96900673 190.59692383 400 C155.34938382 413.57280473 101.06111866 409.7476601 66.12109375 397.11328125 C62.45120199 395.80424602 58.78978556 394.90115422 55 394 C55 393.34 55 392.68 55 392 C54.45472656 391.90203125 53.90945312 391.8040625 53.34765625 391.703125 C42.42424914 389.53711607 32.87620332 383.99431528 23.01513672 379.015625 C19.68101182 377.33523251 16.34021605 375.66824614 13 374 C13 373.34 13 372.68 13 372 C12.113125 371.731875 11.22625 371.46375 10.3125 371.1875 C7.2090334 370.0749365 4.68889315 368.89804222 2 367 C2 366.34 2 365.68 2 365 C1.2575 364.71125 0.515 364.4225 -0.25 364.125 C-4.79459409 362.26584787 -7.55920078 360.5483242 -11 357 C-11.7425 356.46375 -12.485 355.9275 -13.25 355.375 C-14.11625 354.694375 -14.11625 354.694375 -15 354 C-15 353.34 -15 352.68 -15 352 C-15.680625 351.814375 -16.36125 351.62875 -17.0625 351.4375 C-21.20577859 349.40993814 -23.86938541 346.33258972 -27 343 C-29.38630153 340.55688177 -31.66035355 338.25920387 -34.375 336.1875 C-38.01850825 333.15124313 -40.95803054 329.6258546 -44 326 C-44.804375 325.05125 -45.60875 324.1025 -46.4375 323.125 C-48 321 -48 321 -48 319 C-48.99 318.67 -49.98 318.34 -51 318 C-55 312.62857143 -55 312.62857143 -55 310 C-55.99 309.67 -56.98 309.34 -58 309 C-59.03291676 307.01679982 -60.0337499 305.01652194 -61 303 C-61.66 302.67 -62.32 302.34 -63 302 C-67 295.64705882 -67 295.64705882 -67 292 C-67.66 292 -68.32 292 -69 292 C-79.13525836 273.13715805 -79.13525836 273.13715805 -82 266 C-82.4434375 264.90429688 -82.886875 263.80859375 -83.34375 262.6796875 C-87 253.4375 -87 253.4375 -87 250 C-87.66 250 -88.32 250 -89 250 C-89.21148682 249.17592651 -89.21148682 249.17592651 -89.42724609 248.33520508 C-90.07307317 245.82674079 -90.72398903 243.31962371 -91.375 240.8125 C-91.59671875 239.94818359 -91.8184375 239.08386719 -92.046875 238.19335938 C-92.26601562 237.35224609 -92.48515625 236.51113281 -92.7109375 235.64453125 C-92.90993652 234.87471924 -93.10893555 234.10490723 -93.31396484 233.31176758 C-93.96900673 230.95517621 -93.96900673 230.95517621 -95 228.59692383 C-108.42124425 193.74297483 -104.25574454 141.66165981 -92.94921875 106.94604492 C-91.46624208 102.34340103 -90.23637046 97.67385501 -89 93 C-88.34 93 -87.68 93 -87 93 C-86.90203125 92.45472656 -86.8040625 91.90945312 -86.703125 91.34765625 C-84.52514096 80.3638574 -78.93801832 70.74630212 -73.9230957 60.83398438 C-73.07608335 59.15116057 -72.24430554 57.46069132 -71.4140625 55.76953125 C-70.19115826 53.37439559 -68.89477626 51.13172248 -67.4375 48.875 C-65.78560719 46.31225041 -64.32482868 43.74734058 -63 41 C-62.34 41 -61.68 41 -61 41 C-60.731875 40.443125 -60.46375 39.88625 -60.1875 39.3125 C-57.39282492 33.87023799 -54.07979096 28.57982105 -50 24 C-49.34 24 -48.68 24 -48 24 C-47.73832031 23.42121094 -47.47664063 22.84242187 -47.20703125 22.24609375 C-45.92707261 19.86429369 -44.48643946 18.07683354 -42.6875 16.0625 C-42.06617188 15.36640625 -41.44484375 14.6703125 -40.8046875 13.953125 C-38.601542 11.5687684 -36.29531508 9.29531508 -34 7 C-33.319375 6.13375 -32.63875 5.2675 -31.9375 4.375 C-24.48713751 -4.75770241 -9.89446596 -5.85590843 0 0 Z " fill="#71437F" transform="translate(123,85)"/>
<path d="M0 0 C3.84659328 2.26270193 5.66728285 4.2092296 8.1875 7.875 C8.1875 8.865 8.1875 9.855 8.1875 10.875 C8.8475 10.875 9.5075 10.875 10.1875 10.875 C11.22068089 22.35478764 11.22068089 22.35478764 7.875 26.8125 C6.66604931 28.18474498 5.43330163 29.53612123 4.1875 30.875 C3.31469663 31.90280944 2.44796496 32.93579241 1.5859375 33.97265625 C-5.62363787 42.6397404 -13.08544475 51.07596059 -20.6328125 59.44921875 C-25.07913066 64.39754057 -29.43092537 69.41483642 -33.71191406 74.50708008 C-37.70406348 79.25448237 -41.73685141 83.93350955 -45.9375 88.5 C-49.16821488 92.01562832 -52.25506497 95.59409931 -55.25 99.3125 C-58.90821015 103.84816443 -62.75992965 108.1320117 -66.72631836 112.39428711 C-69.71677 115.62693975 -72.55029007 118.94196766 -75.3125 122.375 C-79.42786058 127.48601234 -83.80236376 132.29802226 -88.2578125 137.109375 C-93.33302061 142.60363699 -98.17185756 148.28878456 -103 154 C-103.46374023 154.54785156 -103.92748047 155.09570312 -104.40527344 155.66015625 C-106.92516547 158.63805453 -109.43771494 161.62174689 -111.94140625 164.61328125 C-112.9815539 165.84653716 -114.02191314 167.07961466 -115.0625 168.3125 C-115.76862427 169.16255615 -115.76862427 169.16255615 -116.48901367 170.02978516 C-121.9305046 176.45038427 -127.39817717 182.25027044 -136.0625 183.25 C-146.68091953 182.18815805 -152.4773321 175.7512164 -159.4296875 168.34033203 C-162.25978786 165.34134503 -165.09161149 162.45171081 -168.3125 159.875 C-173.10159804 156.04372157 -176.89972414 151.57033104 -180.8125 146.875 C-182.4584651 145.18788577 -184.12487149 143.5204378 -185.8125 141.875 C-186.616875 141.05 -187.42125 140.225 -188.25 139.375 C-190.8199975 136.80246981 -190.8199975 136.80246981 -193.8125 134.375 C-198.71850311 130.28666407 -202.7330785 125.7703058 -206.8125 120.875 C-208.111875 119.6375 -208.111875 119.6375 -209.4375 118.375 C-213.62089387 113.9714275 -215.00002504 110.39050097 -215.1875 104.375 C-215.00203532 98.89266396 -214.14301647 95.21102596 -210.16015625 91.21875 C-206.1548969 87.62841181 -203.12384772 85.747417 -197.625 85.5625 C-196.90957031 85.52511719 -196.19414062 85.48773438 -195.45703125 85.44921875 C-186.13183374 86.95061687 -180.26403316 93.8953694 -173.96875 100.328125 C-172.94973373 101.35461495 -171.92982081 102.38021547 -170.90905762 103.40496826 C-168.24349348 106.08569999 -165.5901699 108.77822765 -162.93933105 111.47351074 C-160.22474559 114.22924172 -157.4985962 116.97348163 -154.7734375 119.71875 C-149.44182927 125.09307217 -144.12311728 130.47992609 -138.8125 135.875 C-134.63458892 133.9919744 -132.24319045 131.16841012 -129.375 127.6875 C-128.3064823 126.41625236 -127.23745419 125.1454336 -126.16796875 123.875 C-125.6167334 123.21628906 -125.06549805 122.55757813 -124.49755859 121.87890625 C-121.75853318 118.62160104 -118.97515366 115.40319712 -116.1875 112.1875 C-115.64327393 111.55851807 -115.09904785 110.92953613 -114.53833008 110.28149414 C-111.26595309 106.5113499 -107.94034208 102.80088697 -104.5625 99.125 C-100.5584625 94.7593075 -96.81250918 90.23416631 -93.09375 85.625 C-89.94937893 81.83452529 -86.60847945 78.23955614 -83.2734375 74.6171875 C-80.90210105 71.97484117 -78.65997003 69.26805833 -76.4375 66.5 C-72.57095816 61.7043951 -68.46398017 57.20621333 -64.2565918 52.71362305 C-60.33357276 48.50088877 -56.69346281 44.11095547 -53.08984375 39.62109375 C-50.59423531 36.61180948 -47.97484857 33.73561346 -45.3125 30.875 C-41.83830757 27.14172745 -38.5118129 23.35128889 -35.3125 19.375 C-32.00570479 15.29048455 -28.62769064 11.29173152 -25.125 7.375 C-24.25488281 6.3953125 -23.38476562 5.415625 -22.48828125 4.40625 C-15.71582887 -2.00039108 -8.65569763 -2.55414028 0 0 Z " fill="#71437F" transform="translate(365.8125,152.125)"/>
<path d="M0 0 C5.5601643 4.91363357 9.58559475 9.24452991 10.23828125 16.734375 C10.48920269 26.92970942 7.74209274 32.97683004 0.83984375 40.43359375 C-2.05769655 42.90050173 -4.2364282 43 -8 43 C-8.85980469 43.05800781 -9.71960938 43.11601562 -10.60546875 43.17578125 C-16.98763968 43.48388605 -21.80380813 42.87435359 -27 39 C-32.08554376 34.33054618 -35.72128396 29.01557553 -36.2109375 21.9609375 C-36.31046037 13.62092075 -36.31046037 13.62092075 -35 11 C-35.66 11 -36.32 11 -37 11 C-35.74456576 7.23369729 -34.11311137 6.40558606 -31 4 C-30.21625 3.13375 -29.4325 2.2675 -28.625 1.375 C-21.30894132 -5.24429119 -8.23293617 -4.87255406 0 0 Z " fill="#A77DB4" transform="translate(123,85)"/>
<path d="M0 0 C0.66 0 1.32 0 2 0 C2 0.66 2 1.32 2 2 C2.55171875 2.226875 3.1034375 2.45375 3.671875 2.6875 C6.68692417 4.38725926 8.81230369 6.54804816 11.25 9 C12.14203125 9.886875 13.0340625 10.77375 13.953125 11.6875 C16 14 16 14 16 16 C16.5662207 16.24024902 17.13244141 16.48049805 17.71582031 16.72802734 C20.47040587 18.26195111 22.33249671 20.10726018 24.546875 22.3515625 C25.39121094 23.20234375 26.23554688 24.053125 27.10546875 24.9296875 C28.41451172 26.26386719 28.41451172 26.26386719 29.75 27.625 C30.63816406 28.5221875 31.52632812 29.419375 32.44140625 30.34375 C34.63216969 32.55807004 36.81812763 34.77692435 39 37 C38.505 37.99 38.505 37.99 38 39 C36.77083333 37.77083333 35.54166667 36.54166667 34.3125 35.3125 C33.5803125 34.58160156 32.848125 33.85070312 32.09375 33.09765625 C30.4903905 31.4913054 28.89880447 29.87319527 27.3125 28.25 C25.03746883 25.9638232 25.03746883 25.9638232 22.5 24 C17.71090196 20.16872157 13.91277586 15.69533104 10 11 C8.3540349 9.31288577 6.68762851 7.6454378 5 6 C3.31471312 4.35216394 1.64302953 2.68997323 0 1 C0 0.67 0 0.34 0 0 Z " fill="#8B6299" transform="translate(175,288)"/>
<path d="M0 0 C4.247192 0.47732204 6.01721296 2.8251592 8.75 5.9375 C9.54921875 6.83339844 10.3484375 7.72929688 11.171875 8.65234375 C13 11 13 11 13 13 C13.99 13.33 14.98 13.66 16 14 C15.67 14.66 15.34 15.32 15 16 C10.75339144 13.74279365 7.8934035 11.00436449 4.6875 7.4375 C3.80449219 6.46683594 2.92148437 5.49617188 2.01171875 4.49609375 C0 2 0 2 0 0 Z " fill="#855D91" transform="translate(425,96)"/>
<path d="M0 0 C1.2065625 0.0309375 1.2065625 0.0309375 2.4375 0.0625 C1.4475 0.3925 0.4575 0.7225 -0.5625 1.0625 C-0.5625 1.7225 -0.5625 2.3825 -0.5625 3.0625 C-1.11188232 3.20349121 -1.66126465 3.34448242 -2.22729492 3.48974609 C-4.73575921 4.13557317 -7.24287629 4.78648903 -9.75 5.4375 C-10.61431641 5.65921875 -11.47863281 5.8809375 -12.36914062 6.109375 C-16.5718423 7.20433176 -20.53099237 8.43774928 -24.5625 10.0625 C-25.5525 10.0625 -26.5425 10.0625 -27.5625 10.0625 C-27.5625 9.4025 -27.5625 8.7425 -27.5625 8.0625 C-20.28027883 5.78174075 -12.99811372 3.58703014 -5.609375 1.67578125 C-0.01776805 0.00043337 -0.01776805 0.00043337 0 0 Z " fill="#9876A3" transform="translate(335.5625,475.9375)"/>
<path d="M0 0 C1.32 0 2.64 0 4 0 C4 0.66 4 1.32 4 2 C4.65742188 2.0928125 5.31484375 2.185625 5.9921875 2.28125 C9.93770887 3.22407588 13.43980452 4.82857254 17.125 6.5 C22.48877843 8.93264593 22.48877843 8.93264593 28 11 C28 11.66 28 12.32 28 13 C21.41255175 11.47981963 15.5170085 8.95141523 9.5 5.9375 C8.79359375 5.58494141 8.0871875 5.23238281 7.359375 4.86914062 C4.57805062 3.44883254 2.22219949 2.22219949 0 0 Z " fill="#9675A1" transform="translate(146,463)"/>
<path d="M0 0 C0.66 0.33 1.32 0.66 2 1 C0.39824931 4.06376941 -1.20682948 7.12578334 -2.8125 10.1875 C-3.49022461 11.48397461 -3.49022461 11.48397461 -4.18164062 12.80664062 C-6.35138133 16.94023423 -8.52924881 21.03530623 -11 25 C-11 21.98995503 -10.51439034 19.81677457 -9.6875 16.9375 C-9.44386719 16.05964844 -9.20023437 15.18179687 -8.94921875 14.27734375 C-8 12 -8 12 -5 10 C-3.55577774 7.59514202 -3.55577774 7.59514202 -2.3125 4.875 C-1.87550781 3.96492188 -1.43851562 3.05484375 -0.98828125 2.1171875 C-0.66214844 1.41851562 -0.33601563 0.71984375 0 0 Z " fill="#A78BB1" transform="translate(470,351)"/>
<path d="M0 0 C4.8555885 4.60003121 8.20612633 8.51445672 10 15 C10.65411685 16.67163195 11.31653318 18.34015202 12 20 C11.34 20 10.68 20 10 20 C6 13.375 6 13.375 6 10 C5.34 10 4.68 10 4 10 C3.32845067 8.71086513 2.66291141 7.41859796 2 6.125 C1.62875 5.40570313 1.2575 4.68640625 0.875 3.9453125 C0 2 0 2 0 0 Z " fill="#AA8EB3" transform="translate(50,367)"/>
<path d="M0 0 C3.54822446 0.57881268 5.18422803 1.82692359 7.671875 4.37890625 C8.33574219 5.05244141 8.99960938 5.72597656 9.68359375 6.41992188 C10.36550781 7.12697266 11.04742187 7.83402344 11.75 8.5625 C12.44738281 9.27341797 13.14476562 9.98433594 13.86328125 10.71679688 C15.5824658 12.47130714 17.29425872 14.23243352 19 16 C18.67 16.66 18.34 17.32 18 18 C12.24964539 13.56401216 7.60118253 8.56985254 3 3 C2.01709032 1.98319689 1.02665213 0.97261781 0 0 Z " fill="#8D659B" transform="translate(156,270)"/>
<path d="M0 0 C5.66153846 1.47692308 5.66153846 1.47692308 7.375 4.125 C7.684375 5.053125 7.684375 5.053125 8 6 C8.66 6 9.32 6 10 6 C11.625 7.375 11.625 7.375 13 9 C13 9.66 13 10.32 13 11 C9.53862608 10.71155217 8.2935726 10.32915716 5.9375 7.6875 C5.298125 6.800625 4.65875 5.91375 4 5 C3.2575 4.2575 2.515 3.515 1.75 2.75 C1.1725 2.1725 0.595 1.595 0 1 C0 0.67 0 0.34 0 0 Z " fill="#906C9B" transform="translate(85,416)"/>
<path d="M0 0 C0.6875 1.6875 0.6875 1.6875 1 4 C-0.30859375 6.390625 -0.30859375 6.390625 -2 9 C-3.10038734 11.86648945 -4.06548483 14.75896646 -5.03515625 17.671875 C-6 20 -6 20 -8 21 C-6.22962267 13.4291181 -3.74139138 6.81731788 0 0 Z " fill="#AD92B5" transform="translate(44,156)"/>
<path d="M0 0 C0.66 0.33 1.32 0.66 2 1 C0.625 3 0.625 3 -1 5 C-1.66 5 -2.32 5 -3 5 C-3.226875 5.53625 -3.45375 6.0725 -3.6875 6.625 C-5.43382056 9.78500863 -7.6402849 12.2676983 -10 15 C-10 12 -10 12 -8 10 C-7.566875 8.7625 -7.566875 8.7625 -7.125 7.5 C-5.78716339 4.52702976 -4.88968631 4.26423776 -2 3 C-1.34 2.01 -0.68 1.02 0 0 Z " fill="#9675A1" transform="translate(441,399)"/>
<path d="M0 0 C0 0.66 0 1.32 0 2 C-3.42232972 3.14077657 -6.08673217 3.09815117 -9.6875 3.0625 C-11.45673828 3.04896484 -11.45673828 3.04896484 -13.26171875 3.03515625 C-14.16535156 3.02355469 -15.06898438 3.01195312 -16 3 C-16 2.67 -16 2.34 -16 2 C-10.54538831 0.61470179 -5.63281599 -0.2396943 0 0 Z " fill="#926F9D" transform="translate(281,488)"/>
<path d="M0 0 C0 0.66 0 1.32 0 2 C-5.28 1.34 -10.56 0.68 -16 0 C-16 -0.33 -16 -0.66 -16 -1 C-14.27277272 -1.22384382 -12.54303993 -1.42839969 -10.8125 -1.625 C-9.36810547 -1.79902344 -9.36810547 -1.79902344 -7.89453125 -1.9765625 C-4.75924677 -2.00194942 -2.80513465 -1.34359283 0 0 Z " fill="#E2D6EB" transform="translate(419,87)"/>
<path d="M0 0 C1.125 3.75 1.125 3.75 0 6 C-0.99 6 -1.98 6 -3 6 C-3.66 7.32 -4.32 8.64 -5 10 C-5.33 9.01 -5.66 8.02 -6 7 C-4.78515625 5.17578125 -4.78515625 5.17578125 -3.0625 3.3125 C-2.49660156 2.68988281 -1.93070312 2.06726563 -1.34765625 1.42578125 C-0.90292969 0.95527344 -0.45820312 0.48476562 0 0 Z " fill="#A082AA" transform="translate(71,112)"/>
<path d="M0 0 C1.43791516 0.14168137 2.8753237 0.28851043 4.3125 0.4375 C5.11300781 0.51871094 5.91351563 0.59992188 6.73828125 0.68359375 C9 1 9 1 12 2 C12 2.66 12 3.32 12 4 C7.6822542 3.49202991 3.96697886 2.80317221 0 1 C0 0.67 0 0.34 0 0 Z " fill="#9B7AA5" transform="translate(193,482)"/>
<path d="M0 0 C0.66 0.99 1.32 1.98 2 3 C1.21718695 4.33855056 0.42348123 5.67073644 -0.375 7 C-0.81585938 7.7425 -1.25671875 8.485 -1.7109375 9.25 C-2.13632812 9.8275 -2.56171875 10.405 -3 11 C-3.66 11 -4.32 11 -5 11 C-3.55049545 7.2089881 -1.84827434 3.6125362 0 0 Z " fill="#7A5188" transform="translate(421,345)"/>
<path d="M0 0 C0.66 0 1.32 0 2 0 C1.01 3.3 0.02 6.6 -1 10 C-1.99 10 -2.98 10 -4 10 C-3.29445932 6.33118845 -1.72264494 3.29549466 0 0 Z " fill="#AC91B4" transform="translate(60,126)"/>
<path d="M0 0 C1.61949011 2.57213134 2.04408751 3.67669159 1.625 6.75 C1.41875 7.4925 1.2125 8.235 1 9 C0.01 9.33 -0.98 9.66 -2 10 C-1.125 2.25 -1.125 2.25 0 0 Z " fill="#7A4F88" transform="translate(387,99)"/>
<path d="M0 0 C2.02558881 3.34939881 2.21738987 5.86962551 2.125 9.75 C2.10695313 10.73484375 2.08890625 11.7196875 2.0703125 12.734375 C2.04710937 13.48203125 2.02390625 14.2296875 2 15 C1.67 15 1.34 15 1 15 C0.855625 13.88625 0.71125 12.7725 0.5625 11.625 C0.21627965 8.17857953 0.21627965 8.17857953 -1 6 C-0.71887936 3.99199544 -0.38932033 1.98985949 0 0 Z " fill="#A589AE" transform="translate(489,231)"/>
<path d="M0 0 C-1.36983503 3.16115776 -1.9890638 3.9927092 -5 6 C-5.33 4.35 -5.66 2.7 -6 1 C-3 0 -3 0 0 0 Z " fill="#7B5289" transform="translate(121,126)"/>
<path d="M0 0 C-1.10789408 3.32368224 -1.48436217 3.61563093 -4.375 5.25 C-5.28378906 5.78367187 -5.28378906 5.78367187 -6.2109375 6.328125 C-8 7 -8 7 -11 6 C-9.54550599 4.9944239 -8.08627557 3.99569565 -6.625 3 C-5.40683594 2.1646875 -5.40683594 2.1646875 -4.1640625 1.3125 C-2 0 -2 0 0 0 Z " fill="#693977" transform="translate(388,448)"/>
<path d="M0 0 C3.40312738 1.05875074 6.01353231 2.00902154 9 4 C9 4.66 9 5.32 9 6 C5.9168649 4.80100302 2.93720508 3.52299523 0 2 C0 1.34 0 0.68 0 0 Z " fill="#A081AA" transform="translate(116,444)"/>
<path d="M0 0 C1.32 0.33 2.64 0.66 4 1 C4.33 2.65 4.66 4.3 5 6 C4.01 5.67 3.02 5.34 2 5 C0.8125 2.4375 0.8125 2.4375 0 0 Z " fill="#906C9B" transform="translate(70,398)"/>
<path d="M0 0 C2.45823172 3.68734758 3.01242616 6.69699971 4 11 C3.01 10.67 2.02 10.34 1 10 C0.37542727 6.56484998 0 3.50935186 0 0 Z " fill="#9575A1" transform="translate(77,311)"/>
<path d="M0 0 C1.875 0.625 1.875 0.625 4 2 C5.25 5.125 5.25 5.125 6 8 C5.01 7.67 4.02 7.34 3 7 C1.3125 3.4375 1.3125 3.4375 0 0 Z " fill="#9776A2" transform="translate(62,387)"/>
<path d="M0 0 C0.66 0.99 1.32 1.98 2 3 C1.01 4.32 0.02 5.64 -1 7 C-1.66 6.67 -2.32 6.34 -3 6 C-1.125 1.125 -1.125 1.125 0 0 Z " fill="#7D538A" transform="translate(64,122)"/>
</svg>
